<svg version="1.2" xmlns="http://www.w3.org/2000/svg" viewBox="0 0 424 512" width="424" height="512">
	<title>upload-mp3-icon-svg</title>
	<style>
		.s0 { fill: #262626 } 
		.s1 { fill: #00fb76 } 
		.s2 { fill: #ffffff } 
	</style>
	<path id="Layer" fill-rule="evenodd" class="s0" d="m360.1 140.2h-21.4c-61.1 0-90.2-4.1-90.2-86.3v-36.6h-191.7c-21.7 0-39.5 17.8-39.5 39.5v264.8h201.9q-1.7 2.1-3.4 4.2-1.7 2.1-3.2 4.3-1.6 2.2-3.1 4.5-1.4 2.2-2.8 4.6h-189.4v89.8c0 21.6 17.9 39.4 39.5 39.4h149.1q1.3 2.3 2.7 4.6 1.4 2.2 2.9 4.4 1.5 2.1 3.1 4.2 1.6 2.2 3.3 4.2h-161.1c-31.2 0-56.8-25.6-56.8-56.8v-372.2c0-31.2 25.5-56.8 56.8-56.8h206.4q1 0 1.9 0.2 1 0.3 1.9 0.7 0.9 0.5 1.7 1.1 0.8 0.6 1.4 1.5l105.1 113.6c2.1 2.4 2.3 4.7 2.3 7.5v166.9q-2.1-1.1-4.2-2.2-2.2-1-4.3-2-2.2-0.9-4.4-1.8-2.2-0.9-4.5-1.7zm-271.9 126.1h-27.6l5-82.6h34.5l10.3 42.1h0.9l10.3-42.1h34.5l5 82.6h-27.6l-1.6-40h-0.9l-10 40h-20.3l-10.1-40h-0.8zm126.4-20h-18.1v20h-25.5v-82.6h41.6q28.5 0 28.5 30.5 0 16.8-7.4 24.9-2.8 3-7.7 5.1-4.9 2.1-11.4 2.1zm-18.1-41.5v20.4h7q4.8 0 7-1 2.1-1 2.1-4.6v-9.2q0-3.6-2.1-4.6-2.2-1-7-1zm92.1 8v-9.6q-4-0.7-12.9-0.7-8.8 0-22 2.8l-3.5-18.6q16.2-5 31.2-5 13 0 18.8 1.6 5.8 1.6 8.6 3.8 6.1 5.2 6.1 15.6 0 13.2-11 19.1v0.6q13.1 5.4 13.1 19.7 0 7-2.2 12-2.2 4.9-5.5 7.6-3.3 2.7-8.7 4.3-8.1 2.3-22.7 2.3-14.6 0-29.2-3.5l3.7-20.8q12.5 3.1 21.2 3.1 8.8 0 15-0.8v-9.5l-22.8-2.2v-19.2zm-22.7-188.5v29.1c0 65.6 15.4 69.5 69.1 69.5h22zm-179.4 389.1c-11.8 0-11.8-17.9 0-17.9h102.7q0 1.2-0.1 2.3-0.1 1.1-0.1 2.2 0 1.1-0.1 2.3 0 1.1 0 2.2 0 4.5 0.3 8.9z"/>
	<path id="Layer" fill-rule="evenodd" class="s1" d="m317 297.4c59.1 0 107 48 107 107.1 0 59.1-47.9 107-107 107-59.2 0-107.1-47.9-107.1-107 0-59.1 47.9-107.1 107.1-107.1z"/>
	<path id="Layer" class="s2" d="m334.5 399.6l17.7 6.2c11.8 4.5 23.8-3.8 14.7-14.1-11-12.7-27.8-30.2-40-41.8-7.6-7.6-12-7.7-19.7-0.1-13.5 13.3-26.8 28-40 41.8-9.4 10.2 2.4 18.9 14.6 14.2l17.5-6.1c-1.2 16.6-2.8 32.5-3.8 49.1 0 3.1 2.6 5.5 5.5 5.8 10.6 0 21.3 0.2 31.8 0 3-0.3 5.6-2.7 5.6-5.8z"/>
</svg>