<svg width="106" height="106" viewBox="0 0 106 106" fill="none" xmlns="http://www.w3.org/2000/svg">
<g clip-path="url(#clip0_21_429)">
<path d="M53 0C67.6388 0 80.8888 5.9349 90.4727 15.5273C100.065 25.1198 106 38.3698 106 53C106 67.6388 100.065 80.8888 90.4727 90.4727C80.8802 100.065 67.6302 106 53 106C38.3698 106 25.1112 100.065 15.5273 90.4727C5.9349 80.8888 0 67.6388 0 53C0 38.3612 5.9349 25.1112 15.5273 15.5273C25.1112 5.9349 38.3612 0 53 0ZM40.1037 75.0747C45.2795 85.8662 60.9707 86.2458 65.9308 75.1351C64.5765 73.7635 63.5759 72.3057 62.5838 70.8478C62.4199 70.6063 62.256 70.3734 62.0921 70.1318C59.7026 72.0296 56.7956 73.2373 53.0086 73.2287C48.9284 73.2201 45.8574 71.6587 43.3385 69.3555C43.1919 69.2175 43.0366 69.0794 42.89 68.9328C42.5277 69.9334 42.0705 71.1325 41.5788 72.2539C41.1043 73.3322 40.5954 74.3415 40.1037 75.0747ZM79.9313 93.0174L81.1045 80.5265C76.7655 79.6812 72.1159 78.7668 67.311 75.9977C63.7139 87.9797 44.3823 89.403 38.9391 76.3083C34.626 78.4821 30.2352 79.7243 25.2319 80.492L26.9313 93.5781C34.4448 98.4175 43.3989 101.23 53.0086 101.23C62.972 101.23 72.2367 98.2018 79.9313 93.0174ZM14.2852 81.7687L14.4922 81.648C19.6335 78.784 33.0129 77.8351 38.5682 73.9619C38.9736 73.3494 39.4136 72.4609 39.8363 71.4948C40.4746 70.0369 41.0526 68.4497 41.4235 67.3628C39.8708 65.534 38.5423 63.4723 37.2656 61.4365L33.056 54.7425C31.5205 52.4479 30.7183 50.3517 30.6665 48.6265C30.6406 47.8156 30.7786 47.0824 31.0806 46.4354C31.3911 45.7539 31.8742 45.1932 32.5298 44.7533C32.8317 44.5462 33.1768 44.3737 33.5477 44.2357C33.2716 40.604 33.1768 36.0321 33.3493 32.202C33.4355 31.2962 33.6167 30.3818 33.8669 29.4761C34.9451 25.6374 37.6366 22.5405 40.9749 20.4185C42.8123 19.2453 44.8309 18.3654 46.9357 17.7702C48.2728 17.3906 45.797 13.1206 47.1772 12.974C53.8626 12.2839 64.6714 18.3913 69.3382 23.4377C71.6759 25.9652 73.1424 29.3208 73.4616 33.7547L73.2028 44.6756C74.3674 45.0293 75.1178 45.7712 75.4198 46.9702C75.7562 48.2987 75.3939 50.1706 74.2638 52.7153C74.2466 52.7585 74.2207 52.8102 74.1948 52.8534L69.3986 60.755C67.6388 63.6535 65.8446 66.5692 63.5155 68.8638C63.7225 69.1657 63.9382 69.4676 64.1452 69.7782C65.0941 71.167 66.0516 72.5645 67.2765 73.8066C67.3197 73.8498 67.3542 73.8929 67.3801 73.936C72.9009 77.8351 86.3407 78.784 91.4992 81.6566L91.7062 81.7774C97.6842 73.7463 101.221 63.7915 101.221 53.0086C101.221 39.6896 95.821 27.63 87.0911 18.9089C78.3786 10.1704 66.319 4.77035 53 4.77035C39.681 4.77035 27.6214 10.1704 18.9002 18.9002C10.1704 27.6214 4.77035 39.681 4.77035 53C4.77035 63.7829 8.30713 73.7376 14.2852 81.7687ZM35.9803 46.1852C35.0487 46.2197 34.3413 46.4181 33.8582 46.7373C33.5822 46.9185 33.3838 47.16 33.2544 47.436C33.1077 47.7466 33.0474 48.1261 33.056 48.5661C33.0905 49.8428 33.7633 51.5163 35.0573 53.4486L35.0745 53.4744L39.2842 60.1685C40.9749 62.8512 42.7433 65.5858 44.943 67.5957C47.0565 69.528 49.6185 70.8392 53.0173 70.8478C56.6921 70.8564 59.3748 69.4935 61.5573 67.4577C63.826 65.3356 65.6117 62.4286 67.3801 59.5215L72.1245 51.7147C73.0044 49.6961 73.3322 48.3504 73.1252 47.5568C73.0044 47.0824 72.4868 46.8581 71.5983 46.8063C71.4085 46.7977 71.2188 46.7977 71.0203 46.7977C70.8133 46.8063 70.589 46.8149 70.3561 46.8408C70.2267 46.8494 70.106 46.8408 69.9938 46.8149C69.5711 46.8408 69.1398 46.8063 68.6912 46.7459L70.313 39.5602C58.2707 41.458 49.2562 32.5125 36.5238 37.7746L37.4382 46.2456C36.9119 46.2715 36.4289 46.2542 35.9803 46.1852Z" fill="#F1F1F1"/>
</g>
<defs>
<clipPath id="clip0_21_429">
<rect width="106" height="106" fill="white"/>
</clipPath>
</defs>
</svg>
